/* XPM */
static char *_fe991b393f14b5efde5cc4c9e5aefecLqujSdKrMlqT3Ntv[] = {
/* columns rows colors chars-per-pixel */
"23 26 15 1 ",
"  c #663931",
". c #683B33",
"X c #73453D",
"o c #794941",
"O c #7A4C44",
"+ c #DF2626",
"@ c #DF4026",
"# c #DF5226",
"$ c #DF7126",
"% c #89544A",
"& c #8C5E56",
"* c green",
"= c #EDB12E",
"- c #FBF236",
"; c #FBF268",
/* pixels */
"***********************",
"***********************",
"***********************",
"***********************",
"*************+*********",
"**********++++*********",
"*********++##+*********",
"********++#$#+**+******",
"******+++$==$++++******",
"******+#$===$++#+******",
"*****++$===$#+#$+******",
"****++@$=-=$##$$+++****",
"****+#$=---=$$=$+#+****",
"***++$=--;--===$##+****",
"***+#$=-;;----=$$++****",
"***+$=--;;;;;;-=$+*****",
"***+$--;;;;;;;-=$+*****",
"***+$--;;;;;;;=$#+*****",
"***+$=-;;;;;;-=$++*****",
"***+#$=;;;;;;==$+******",
"****+#$=======$#+******",
"Xoo%&&&&&&&&&&&&%ooX***",
" ..XXXXXO&&OXXXXX.. ***",
"*     .XXXXXX.     ****",
"******..XXXX..*********",
"*******      **********"
};
