/* XPM */
static char *campfire3_filled_23261745253228[] = {
/* columns rows colors chars-per-pixel */
"23 26 12 1 ",
"  c #663931",
". c #683B33",
"X c #73453D",
"o c #794941",
"O c #DF2626",
"+ c #DF5226",
"@ c #DF7126",
"# c #8C5E56",
"$ c green",
"% c #EDB12E",
"& c #FBF236",
"* c #FBF268",
/* pixels */
"$$$$$$$$$$$$$$$$$$$$$$$",
"$$$$$$$$$$$$$$$$$$$$$$$",
"$$$$$$$$$$$$$$$O$$$$$$$",
"$$$$$$$$$$$$$$O$$$$$$$$",
"$$$$$$$$$$$OOOO$$$$$$$$",
"$$$$$$$$$OOO++O$$O$$$$$",
"$$$$$$$$OO+++OO$OO$$$$$",
"$$$$$$OOO+@@++OO+O$$$$$",
"$$$$$OO++@%%+@++OO$$$$$",
"$$$$$O++@%&%@@@+O$$$$$$",
"$$$OOO+@%&&@@@&@OO$$$$$",
"$$$OO+@@%&&@@&&@OOO$$$$",
"$$$O++@%&&&%&&%@O+OO$$$",
"$$OO+@%&&*&&&&&@+@+OO$$",
"$$OO+@&&**&&&&&@@+OO$$$",
"$$O+@%&&******&%@+O$$$$",
"$$O+@&&*******&%@+O$$$$",
"$$O@&&&*******&@@+O$$$$",
"$$O+@%&******&&@+OO$$$$",
"$$O+@@%******&%@OOO$$$$",
"$$$O+@@%%%%%%%@+OO$$$$$",
"Xo################oX$$$",
" ..XXX#########XX.. $$$",
"$     .XX##XX.     $$$$",
"$$$$$$..XXXX..$$$$$$$$$",
"$$$$$$$      $$$$$$$$$$"
};
