/* XPM */
static char *_f0278a928b04dbbad385e6f0abc4c0eG96GkcexpXNrIWOz[] = {
/* columns rows colors chars-per-pixel */
"21 24 12 1 ",
"  c None",
". c #663931",
"X c #683B33",
"o c #73453D",
"O c #794941",
"+ c #DF2626",
"@ c #DF5226",
"# c #DF7126",
"$ c #8C5E56",
"% c #EDB12E",
"& c #FBF236",
"* c #FBF268",
/* pixels */
"               +     ",
"              +      ",
"           ++++      ",
"         +++@@+  +   ",
"        ++@@@++ ++   ",
"      +++@##@@++@+   ",
"     ++@@#%%@#@@++   ",
"     +@@#%&%###@+    ",
"   +++@#%&&###&#++   ",
"   ++@##%&&##&&#+++  ",
"   +@@#%&&&%&&%#+@++ ",
"  ++@#%&&*&&&&&#@#@++",
"  ++@#&&**&&&&&##@++ ",
"  +@#%&&******&%#@+  ",
"  +@#&&*******&%#@+  ",
"  +#&&&*******&##@+  ",
"  +@#%&******&&#@++  ",
"  +@##%******&%#+++  ",
"   +@##%%%%%%%#@++   ",
"oO$$$$$$$$$$$$$$$$Oo ",
".XXooo$$$$$$$$$ooXX. ",
" .....Xoo$$ooX.....  ",
"      XXooooXX       ",
"       ......        "
};
