/* XPM */
static char *a751e30a90c4434fec18f7899100f7bakbQqZjEDTSlypCwp[] = {
/* columns rows colors chars-per-pixel */
"20 22 15 1 ",
"  c None",
". c #663931",
"X c #683B33",
"o c #73453D",
"O c #794941",
"+ c #7A4C44",
"@ c #DF2626",
"# c #DF4026",
"$ c #DF5226",
"% c #DF7126",
"& c #89544A",
"* c #8C5E56",
"= c #EDB12E",
"- c #FBF236",
"; c #FBF268",
/* pixels */
"             @      ",
"          @@@@      ",
"         @@$$@      ",
"        @@$%$@  @   ",
"      @@@%==%@@@@   ",
"      @$%===%@@$@   ",
"     @@%===%$@$%@   ",
"    @@#%=-=%$$%%@@@ ",
"    @$%=---=%%=%@$@ ",
"   @@%=--;--===%$$@ ",
"   @$%=-;;----=%%@@ ",
"   @%=--;;;;;;-=%@  ",
"   @%--;;;;;;;-=%@  ",
"   @%--;;;;;;;=%$@  ",
"   @%=-;;;;;;-=%@@  ",
"   @$%=;;;;;;==%@   ",
"    @$%=======%$@   ",
"oOO&************&OOo",
".XXooooo+**+oooooXX.",
" .....XooooooX..... ",
"      XXooooXX      ",
"       ......       "
};
