/* XPM */
static char *a2094da2e89f434c967372075c56754azMYLg8H1Sh1yJurc[] = {
/* columns rows colors chars-per-pixel */
"23 26 11 1 ",
"  c None",
". c #663931",
"X c #683B33",
"o c #73453D",
"O c #DF2626",
"+ c #DF5226",
"@ c #DF7126",
"# c #8C5E56",
"$ c #EDB12E",
"% c #FBF236",
"& c #FBF268",
/* pixels */
"                 O     ",
"               OO      ",
"             OOOO   O  ",
"     O     OO+OO   O   ",
"    O    +OO+++   OO   ",
"   OOO OOO++++O OO+O   ",
"   O+OOO++++@+OO++O    ",
"    O++++@@@++++@+O    ",
"   +O+$@@@$%+@@$+OO    ",
"   O++@@$$%$@%$@+O     ",
"   O+@@$$%%@$$%@+OO    ",
"  OO+@$%$%%$$%%@++OO  O",
" O O+@$$%%%$%%$%@+++OO ",
" OOO+@$%%&%%%%%@+@@+O  ",
" O++@@%%&&%%%%%%$%@+O  ",
" O+@%$%%&&&&&&%%$$@OO  ",
" O+@$%%&&&&&&&%%$@+O   ",
" O+@%%%&&&&&&&%$$@+O   ",
" O++@$%&&&&&&%%$@@+O   ",
" OO+@@$&&&&&&%$@++O+   ",
"  +O+@@$$$$$$$@+OOO    ",
"o##################o   ",
".o################o.   ",
" ..oo.oo####oo.oo..    ",
"      XXooooXX         ",
"       ......          "
};
