/* XPM */
static char *space_door_64_shrinked1745105572[] = {
/* columns rows colors chars-per-pixel */
"64 64 103 2 ",
"   c #030304",
".  c #060709",
"X  c #070809",
"o  c #0A0B0D",
"O  c #0E0F11",
"+  c #0F1012",
"@  c #121315",
"#  c #151619",
"$  c #16181C",
"%  c #191A1E",
"&  c #171B20",
"*  c #1C1E22",
"=  c #1E2125",
"-  c #1F2329",
";  c #202327",
":  c #23262B",
">  c #26292E",
",  c #272B30",
"<  c #2A2D33",
"1  c #2D3036",
"2  c #2E3239",
"3  c #31353C",
"4  c #34383E",
"5  c #363B41",
"6  c #393E44",
"7  c #3B3F48",
"8  c #3B4047",
"9  c #3E4249",
"0  c #41464D",
"q  c #43484F",
"w  c #434750",
"e  c #454A52",
"r  c #494D55",
"t  c #4B4F58",
"y  c #4C5057",
"u  c #4D525A",
"i  c #51565E",
"p  c #54585E",
"a  c #585B5F",
"s  c #535760",
"d  c #555A62",
"f  c #595E65",
"g  c #5B5F68",
"h  c #5C6167",
"j  c #5D626A",
"k  c #61666D",
"l  c #64696E",
"z  c #626770",
"x  c #666B71",
"c  c #696D74",
"v  c #6B6F79",
"b  c #6C7077",
"n  c #6E7379",
"m  c #71767C",
"M  c #74797F",
"N  c #767B81",
"B  c #7A7E84",
"V  c #7C8086",
"C  c #7E8389",
"Z  c #81868C",
"A  c #84898E",
"S  c #868A90",
"D  c #8A8D93",
"F  c #8D9197",
"G  c #8F9299",
"H  c #92959B",
"J  c #96999E",
"K  c #979BA0",
"L  c #9A9DA3",
"P  c #9EA1A6",
"I  c #9FA3A8",
"U  c #A2A5AA",
"Y  c #A6A9AE",
"T  c #A8ABAF",
"R  c #A7AAB0",
"E  c #AAADB2",
"W  c #AEB1B5",
"Q  c #B0B3B7",
"!  c #B3B6BA",
"~  c #B6B9BD",
"^  c #B9BBBE",
"/  c #BBBDC1",
"(  c #BEC1C4",
")  c #C1C3C6",
"_  c #C4C6C9",
"`  c #C7C8CC",
"'  c #C9CBCE",
"]  c #CCCED1",
"[  c #CFD0D3",
"{  c #D2D3D5",
"}  c #D5D6D9",
"|  c #D7D8DB",
" . c #DADBDD",
".. c #DEDEE1",
"X. c #DFE0E2",
"o. c #E2E2E4",
"O. c #E6E6E9",
"+. c #E9EAEB",
"@. c #EFEFF1",
"#. c #F0EFF1",
"$. c #F3F3F5",
"%. c #F6F7F8",
"&. c #FEFEFE",
/* pixels */
"K L J U ^ ^ ^ ' Z > 3 2 2 3 4 4 5 2 2 5 5 5 3 3 5 5 5 5 3 3 5 5 5 5 5 5 5 6 6 5 5 5 5 5 5 5 5 5 5 8 5 5 5 8 < F X.} { | ( E Q ! ",
"L P P ! ( ^ _ ~ i a k l x l j k k x x x j j x b x z k z c b x x x x b b z z x v N v z z z N N v z x v N N v z d ] X.| | [ / / / ",
"U U W ) ) ) ' M r f f A J m d d c K H j j f Z L C g h x J L b j j B I F z j z J I V g g N I P x z z D R C z v 9 C @.X.X.X.] ( ( ",
"Y E ( ) ) ' E y f Z J J J J J J K K L K K K L L L K L L P I P L L P I U P I I I Y I I I I U U U I U U R R R G v d ( O.X.X.X.] ( ",
"Y ~ ) ) ) ' x c F P K L L P P L L L P P P P P P U U U U U U U Y Y R Y Y R R R R R R E / E E R / E E Q W E W / / B N @.X.X.X.X.( ",
"Q / / ) ' U a Y ! F c N N N N N B B B B B B V V B B B V V V V C C C C Z C C Z C G C C C C C C C C C C G C C U ] ( z / @.X.X.X...",
"/ ( / ) ) k G ( W M 5 5 6 8 8 8 8 7 8 8 8 8 8 8 9 9 8 9 9 8 9 6 9 9 9 9 9 9 9 9 9 9 9 9 9 9 9 9 9 9 r 9 9 8 C ] | R N X.X.X.X.X.",
"^ / ^ ' H n ) ) U h 2 3 9 9 8 8 8 9 8 9 8 8 9 9 9 9 9 9 9 9 9 8 9 9 9 9 9 9 w 9 9 9 t 9 9 9 9 9 r 9 9 9 8 5 g ( X.X.C W $.X.X.X.",
"^ ^ ) / x ~ [ ) D e 5 u d d s d d s s s s i s s s d s s s d d s h d f f h h d d h j h d h h h d j d j j u 7 5 K O.@.} V X.o.X.X.",
"^ ~ ` S H  .{ W x 6 r k b x c x x x x c c c x x c c c c b c b l b n c n v v n N v v v N v N N N N N N N v i 1 s { %.&.W I $.X.X.",
"~ / W m { | ' F r 8 k N M M M m N n n N N N M N N N N B V V V M V V V N B V V V V V V V C C C C V C C S C c e 1 K $.&.%.D { +.X.",
"! _ M T | { Y j 8 i M V u u u u u u u u u u y u u u u u y V F C C F V u i i i i i d s d d s d d d f d j D V f 2 u [ &.&.] G @.X.",
"] J V { | ( n 9 q x Z k r y y y y y y u u t u y u u u u u D J F H K C s s i i i s s d s s s d d d d d s N G b r 2 C @.&.&.K / &.",
"^ b / { { C q 5 h C V i i d d d s h f d d f f h h h f f h F J G H P D h h j j j j j j j j z z j z z z j j F D x 6 0 W &.&.O.D o.",
"a J {  .L 9 2 u M D x h j j h h j j j j j j j j z j z z l J U J P I H z x c c c c c x c x c v v c N x c x B L V d 5 f { &.&./ b ",
"y ! | / r 2 e M G D n M n m n M m M M M m N M m N N N N M U T U I Q I V V V V V V V V V C C C C C C C C S Z P I B t 3 N $.&.O.k ",
"u Q  .Z ; q A Y / ! Q W E E Y Y Y U U U U U U P I I P P P ^ ) / ( _ / I U Y Y Y Y W W W Q ! ~ / / ( ( ] ] [ [ [ / D 9 5 / &...z ",
"r Y ] V > c L ^ ( ~ ! ! ! ! Q Q Q E E E Y E E E E E W T E ) ` ) ` ' ) E W W Q Q ! ~ ^ ^ / ( ( ( ( ` ] { [ } } ..] E N 5 H %.[ j ",
"q L _ B > Z W ^ ~ ! ! ! Q Q Q ! Q Q E W W W W E W W W W W _ ' ` ` [ ` ~ ~ ~ / / / / ( ( ( ( ( ' ( ] ] ] [ { } } } ( D < K %.` h ",
"0 H ~ m > Z ^ ! W W W W Q E Q E E W W W W Q W Q ! W ! W ! ` [ ` ' [ ` ! ~ ~ ^ ^ / / ( ( ( ( ( ( ' ( ' ' ] [ [ { { [ D 5 F +./ d ",
"8 D W b : C ^ E U U Y U Y Y R R T Y E E E E W W ! W ! ! ~ ` ' ' ] [ ' ! ! ^ ^ ~ ~ / / / ( ( ( ( ( ( / ( ( ( ( ( { } C 1 S ..W u ",
"6 C U l : N Q P J K L L K P P P U U U U Y Y T T T T Y W ) ' ' _ ` ' ' ` ! W Q Q W ! Q ! ~ ~ Q ~ / / / / / / W / ( ] C < C [ R u ",
"4 N J j : m Y H Z A D D F F F F G G G H J J J J L J P ^ ) ( ( ( ) ) _ ` ( Y I U U U U U I I I I I I I I I I I I / ( N < N ( P e ",
"3 m F a - c L C n M M N N N V V B Z Z Z A Z A S A D T ! ! ! ~ ! ! ^ ^ ^ / W G G G G G G G H H F F F G F D F D D I / v , N / H 9 ",
"2 x Z p - j F m j l l l x x x x c b b b n n n n n F Y U Y Y R Y E Q E E W ! G M V V V V V V V V B V N N N N N N G R z < v R C 9 ",
"1 h N u = h A j y u i i d d d s a a f f g g h g k J L J J P Y P U T U P P U J b z z j z j j z z z z z z z z j h C K g , z I V 9 ",
"< a b y = u V i 8 9 9 9 9 9 e 9 q r r r r t r e x G D D H J G D F J J J G G J b i s d d i d s s u i d u u u d u N D s , z F N 5 ",
", y l e - e b y 4 8 8 9 8 8 8 8 8 9 8 8 9 9 9 9 M C V C C N N M Z V V Z A Z D M 9 r 9 9 9 r 9 r e 9 9 r t 9 9 9 g C t , h C c 5 ",
": e h 9 = 9 j 9 1 3 3 3 4 3 5 4 4 4 4 4 4 4 4 0 n n n n k h k b c x c c N N N N 9 9 9 8 8 8 8 8 9 8 5 8 8 5 8 5 d N 9 < d N z 2 ",
": 9 y 9 = 8 d 8 , , 1 1 < 1 1 1 1 1 2 1 1 3 < q k k k d y p g u i s i i h x b n 9 2 4 4 4 4 4 4 5 5 4 5 5 5 5 2 r v 9 > s z d 2 ",
"- 8 9 8 = 4 e e 9 9 e 9 9 e e e e q r r y y r i d d i 9 q y 9 q 9 e 9 9 w s h j h y i i i u i i i s i i i i i i h d 9 > u h u 1 ",
"= 5 9 8 = 2 9 9 9 e e e e e e e r r r r y r r r r r 9 4 9 6 5 5 5 8 8 5 8 w u y i d i s s s s d s s s s d d d d d u 5 > u u r < ",
"* 2 5 5 * 1 8 6 6 6 6 6 9 9 9 9 0 0 8 0 0 0 0 0 0 0 3 1 4 1 2 2 2 2 3 3 2 4 e y r r e e r r r r r r r r r r r r r r 3 > r y q > ",
"* 2 5 5 * < 5 4 5 6 6 6 5 6 6 6 4 8 6 0 6 8 6 0 0 8 < < 1 > < > < < > < > 1 9 q 0 0 q q q q q q e q e e e q r r e q 2 > r r 0 > ",
"= 2 5 5 * , 4 4 4 6 5 6 5 5 4 6 6 6 6 6 6 6 6 6 8 4 : < < ; : : : : : : : 1 9 q 0 0 0 0 0 0 0 0 0 q 0 0 q q w w q 0 1 > r u q > ",
"= 3 6 5 * : 2 3 3 2 2 2 3 3 3 3 3 3 3 3 3 4 4 3 4 4 : > < ; : : : : : > : > 4 8 6 5 6 6 6 6 6 6 6 6 6 6 8 8 8 6 8 6 > ; r u e < ",
"= 4 6 5 * , 5 5 4 4 6 6 5 6 6 6 6 4 8 8 6 0 6 6 0 6 > < 1 : > > > > > > > 1 9 0 0 0 0 q q q q q q q e w e e w e e w 3 : r s e < ",
"= 3 8 5 * < 5 5 4 6 4 6 6 7 6 6 8 8 8 8 6 6 6 0 0 6 1 < 3 > > < < , < , < 2 0 q w w q q q q q q q q e e e e r r e e 3 : r a u < ",
"* 5 8 6 * 1 6 6 0 6 0 0 9 9 9 0 9 0 0 0 q q q q 0 0 4 < 4 2 2 2 2 3 2 3 1 8 y e r t t t y t y y y y y u u u u u u t 4 : t a t < ",
"- 6 9 5 * < 0 0 6 0 6 8 9 9 9 9 8 0 0 0 0 0 0 e q r 0 3 6 8 3 4 4 4 5 4 5 q u y y r r r r t y u y y u y u y y u s i 6 > u g u 1 ",
"- 6 e 6 * 2 e 1 ; : : : : : : > > > > > > < : 6 i u t 9 5 e 0 6 6 6 8 6 9 i i f 7 , < < < < 2 < 1 1 1 1 < 1 1 < 6 f 7 > u k i < ",
"- 7 e 7 - 5 u 2 ; : : : : > > : > > > > > > : 3 f i d r 0 9 r i q 0 0 q i f f g 5 , 1 1 < < < 2 1 < 1 < 1 1 1 < 0 k 0 > u x a 2 ",
"- 8 r 8 - 5 i 5 : > > , , , < < > < < < < < < < p g g d r 0 0 r t q q i f k k g 3 1 2 3 2 3 2 3 3 1 3 3 3 3 3 1 w l 0 > s c f 1 ",
"- 9 y 9 * 5 u 5 : , < , < < < < < < < 1 < 2 < < e k g h f u e e t e u f k k x t < 3 3 3 3 3 3 3 3 4 3 4 3 3 3 3 e c w > s v g 2 ",
": 9 u 9 = 5 u 5 : , < , , , > < < < < 1 < < < < 3 f h g h d i i p p f k k k x 5 1 3 3 3 2 3 2 3 3 3 3 3 4 4 4 2 e c 0 , g m g 3 ",
": q i 0 * 5 u 5 : : : > > > > > > > < > < < < < , e h f d d p u d f g g g k t , 1 1 1 1 1 2 2 2 1 1 1 3 2 2 2 < w k 9 < g N k 5 ",
"- q i 0 - 2 e 1 * : ; ; : ; : : : : : : : : : > : , u s i u i u i d i i d d < , < < < < < < < < < < < < < 1 < > 7 g 7 > g N k 3 ",
"- 8 w 0 - 2 9 , * * * ; * * * = ; ; * ; ; = ; ; ; * , r t e r q r r r t t < ; ; ; ; : : : : : : : : : : : > : ; 4 s 5 , g k f 1 ",
"= 4 6 q = < 8 - # # $ $ $ $ $ % % % % % * % % % * % $ : 0 0 0 9 0 0 q q > % * * ; % = = % = = = ; * * ; ; ; * % 1 y 3 < h a y 1 ",
"* 1 4 q - : 4 = + # # @ # # # # # # # # # $ $ $ $ $ $ # * 6 8 4 6 0 8 * # % % $ % % % % % % % % % % % % % % % % < q 1 < l y q > ",
"$ < 1 w = = 2 % O + + + + @ + + @ @ @ @ @ @ @ @ @ @ @ @ @ 3 5 3 4 4 3 @ @ @ @ @ @ @ @ @ @ @ @ # @ # @ # # @ @ @ ; 0 > < l q 9 : ",
"# : , y - * > - o o o o o o o o o o o o o o O o o o O o o < 2 < 1 3 < O O O O O O o O O O @ O O @ O O O O O O o < 4 ; < c 6 5 ; ",
"@ - - y - # = - @ . X . o . o . X X X X o X o o o o X X X : > : > < : o o o o o o o o o o o o o o o o o o o . % 2 < % < b 3 2 * ",
"+ & = w , # $ = % . . . . . . . . . X . . . . . . . . . . ; : ; ; : = . . . . . X X X X . . . o o o . o X . . : > : % 0 M > > # ",
"+ * & 9 8 - # $ * @         .                   .       . * = * = ; * .   .   . .     X   . .   . . .       % : ; * > n b > 1 % ",
"# , 1 8 j 1 - * $ *                                       % = * * ; *                           .         . > : > > e L a r 8 * ",
": > q r b y < h n n k u i p p p a a a p a f h h h h k k k V S Z Z S Z k k k k k k x l l l c x x x c c v c S K P A 3 V P c v 7 6 ",
"8 4 q n m M 3 k E Y E L H J J J L L U U U U U Y T T T T E _ ' ` ' [ ] ~ ! ~ ^ ^ ^ / / / / / / ) ) ( ) ( ' o.X.#.m e W T T c t k ",
"1 e y M H H p 3 B L J H V V Z Z Z A A A A S D D D D F G G T ! Q ! ~ Q J J J J P L L L P P P U P P P I U ) ' } L 1 S }  .! M m r ",
"1 3 h g H L Z 6 e V A A Z Z Z A S S S D D F F F G G H H J P L K U U U K P P P U I I I U U U U T T T T T W Q W 0 a / o...D H t t ",
"3 1 q i l J G p 3 y l l l x x b c v n n m m m m M M M M N N N m B B B V Z Z V Z Z Z Z Z Z Z Z S A S S S S F a 3 D {  .P Z v q t ",
"1 1 < i y Z H M 4 3 0 r r r r y r t u u t i i i p p p p p p f i f f f f f f f f h g g h g g j g h j j j k d 2 f W { / M Z 7 r e ",
", 1 < 4 i i A A r 1 < 8 8 0 0 0 0 w 0 0 q w q w e r e e r r t e r t u t y u r y t u i t u i i i i i a u p 5 0 B / ) V V y 0 w q ",
", , < - r 0 x V k 1 > < < 1 < < 1 1 2 2 2 3 3 3 3 3 3 4 3 3 4 3 4 3 4 5 5 5 6 4 5 6 5 5 5 6 6 5 5 5 6 6 5 4 t H ! J h m 2 0 9 7 "
};
