/* XPM */
static char *space_door_opened_filled_641745104936[] = {
/* columns rows colors chars-per-pixel */
"64 39 159 2 ",
"   c #0E0F12",
".  c #101215",
"X  c #121418",
"o  c #17181D",
"O  c #181A1E",
"+  c #1B1E22",
"@  c #1E2126",
"#  c #1F2328",
"$  c #21252B",
"%  c #25292E",
"&  c #26382F",
"*  c #262B31",
"=  c #2A2D33",
"-  c #2D2039",
";  c #2C3136",
":  c #283832",
">  c #2F3339",
",  c #2E3E39",
"<  c #31353C",
"1  c #343A3E",
"2  c #146F19",
"3  c #16721B",
"4  c #18731F",
"5  c #157B1C",
"6  c #18781E",
"7  c #1B4F23",
"8  c #24452C",
"9  c #2F443A",
"0  c #324F3B",
"q  c #265530",
"w  c #1C7322",
"e  c #207626",
"r  c #26752E",
"t  c #217A28",
"y  c #276E30",
"u  c #306E39",
"i  c #277130",
"p  c #2F7138",
"a  c #32773B",
"s  c #352740",
"d  c #362942",
"f  c #3A2D46",
"g  c #363D42",
"h  c #3C3849",
"j  c #3C3848",
"k  c #42354D",
"l  c #483B54",
"z  c #4B3E59",
"x  c #374642",
"c  c #3B4246",
"v  c #374842",
"b  c #384843",
"n  c #3E4349",
"m  c #41464D",
"M  c #43494F",
"N  c #42504C",
"B  c #464B51",
"V  c #494E55",
"C  c #4D435A",
"Z  c #4F4A5A",
"A  c #51445E",
"S  c #4A5056",
"D  c #4D535A",
"F  c #52565E",
"G  c #51595D",
"H  c #564A63",
"J  c #5B4E68",
"K  c #594C65",
"L  c #585364",
"P  c #555B62",
"I  c #595E65",
"U  c #5D516A",
"Y  c #63566E",
"T  c #685A75",
"R  c #5B6167",
"E  c #5E636A",
"W  c #61666E",
"Q  c #62696E",
"!  c #656A71",
"~  c #6A6E75",
"^  c #6E6179",
"/  c #6E6B78",
"(  c #656271",
")  c #71657D",
"_  c #6B7075",
"`  c #6E757A",
"'  c #73767D",
"]  c #74797E",
"[  c #36843F",
"{  c #08CD09",
"}  c #09D50B",
"|  c #07DB09",
" . c #0ADA0C",
".. c #0EDF10",
"X. c #01F601",
"o. c #00FF00",
"O. c #11E513",
"+. c #3F8848",
"@. c #418D49",
"#. c #7C6D86",
"$. c #767781",
"%. c #7C7687",
"&. c #767A81",
"*. c #7A7C84",
"=. c #7E7089",
"-. c #7E7E89",
";. c #81748D",
":. c #877692",
">. c #8C7E97",
",. c #7D8187",
"<. c #7F8189",
"1. c #81838B",
"2. c #84898D",
"3. c #878B91",
"4. c #8A8C93",
"5. c #888493",
"6. c #8B9294",
"7. c #8E9298",
"8. c #93969C",
"9. c #969A9E",
"0. c #9589A0",
"q. c #998AA3",
"w. c #9799A0",
"e. c #9B9DA3",
"r. c #A398AC",
"t. c #9EA1A6",
"y. c #9FA1A8",
"u. c #A2A4AB",
"i. c #A6AAAD",
"p. c #A9AAAF",
"a. c #AAACB2",
"s. c #ADB1B5",
"d. c #B0B4B7",
"f. c #B2B5B9",
"g. c #B6BABC",
"h. c #B9BBBE",
"j. c #BCBEC2",
"k. c #BEC2C3",
"l. c #C1C3C6",
"z. c #C3C9C7",
"x. c #C4C6C9",
"c. c #C6C9CB",
"v. c #CACCCE",
"b. c #CDCED1",
"n. c #CDD2D1",
"m. c #D1D2D4",
"M. c #D6D7D9",
"N. c #D6D8D9",
"B. c #DBDCDE",
"V. c #DAE1DE",
"C. c #DEDFE1",
"Z. c #DFE0E2",
"A. c #E0E1E3",
"S. c #E9EAEB",
"D. c #EDF2EF",
"F. c #EFEFF1",
"G. c #EFF4F0",
"H. c #F0F0F1",
"J. c #FEFEFE",
/* pixels */
"9.e.9.i.h.g.h.x./ m N m m m M M M m m M B B M m m M B B m m B B V B m B B V B B m V V V V B B V V S B M B D M *.C.m.m.M.k.s.f.f.",
"t.t.i.h.j.h.x.4.S F Y ] 1.! R R Q 1.*.W R W ] 3.] W W ! 1.2.~ W W ' 3.-.! W ! 1.4.] W W ` 4.3.~ W ! <.7.*.! ! F e.A.M.M.M.x.j.j.",
"u.a.j.l.j.v.7.G _ 4.9.9.9.r.8.8.w.u.r.w.9.9.r.u.r.e.e.e.u.i.t.r.e.u.i.i.y.y.y.i.a.u.u.u.u.a.a.u.u.u.a.s.p.i.e.3.W i.S.C.A.C.b.x.",
"s.j.j.j.v.e.R u.p.7./ ' ] ] ] ] &.] ] %.*.$.] &.] *.*.*.&.&.,.*.-.-.*.-.-.1.-.-.-.-.-.-.<.-.-.1.<.5.<.-.1.-.i.c.g.~ f.S.C.A.C.b.",
"j.j.g.x.u.! d.h.i.Y r } |  .| .. . . ... . . . . . . . . . . . . . . .}  . . . .}  . . . . . .} ..} } }  .i T k.M.b.*.k.S.C.C.C.",
"h.f.l.p.' k.v.h.;.[ o.o.o.o.o.o.o.o.o.o.o.o.o.o.o.o.o.o.o.o.o.o.o.o.o.o.o.o.o.o.o.o.o.o.o.o.o.o.o.o.o.o.o.o.y :.Z.G.A.4.c.S.C.C.",
"d.j.a.*.x.M.z.>.@.o.o.X.o.o.o.o.o.o.o.o.o.o.o.o.o.o.o.o.o.X.o.o.o.o.o.o.o.o.o.o.o.o.o.o.o.o.o.o.o.o.o.o.o.o.X.y q.D.J.S.0.b.S.C.",
"l.i.&.l.M.z.:.@.X.o.o.o.o.o.o.o.o.o.o.o.o.o.o.o.o.o.o.o.o.o.o.o.o.o.o.o.o.o.o.o.o.o.o.o.o.o.o.o.o.o.o.o.o.o.o.X.u r.G.J.S.8.c.F.",
"9.*.h.M.j.) a X.o.o.o.o.o.o.o.o.o.o.o.o.o.o.o.o.o.o.o.o.o.o.o.o.o.o.o.o.o.o.o.o.o.o.o.o.o.o.o.o.o.o.o.o.o.o.o.o.X.p q.G.J.S.w.x.",
"V d.m.g.H y o.o.o.o.o.o.o.o.o.o.o.o.o.o.o.o.o.o.o.o.o.o.o.o.o.o.o.o.o.o.o.o.o.o.o.o.o.o.o.o.o.o.o.o.o.o.o.o.o.X.o.X.u %.S.J.C.Q ",
"G i.v.%.7 o.o.o.o.o.o.o.o.o.o.o.o.o.o.o.o.o.o.o.o.o.o.o.o.o.o.o.o.o.o.o.o.o.o.o.o.o.o.o.o.o.o.o.o.o.o.o.o.o.o.o.o.o.X.q r.J.N.! ",
"B 8.g.#.5 o.X.o.o.o.o.o.o.o.o.o.o.o.o.o.o.o.o.o.o.o.o.o.o.o.o.o.o.o.o.o.o.o.o.o.o.o.o.o.o.o.o.o.o.o.o.o.o.o.o.o.o.o.o.w 0.S.k.I ",
"m 3.p.^ 3 o.o.o.o.o.o.o.o.o.o.o.o.o.o.o.o.o.o.o.o.o.o.o.o.o.o.o.o.o.o.o.o.o.o.o.o.o.o.o.o.o.o.o.o.o.o.o.o.o.o.o.o.o.o.w 5.N.d.P ",
"g &.9.Y 4 o.o.o.o.o.o.o.o.o.o.o.o.o.o.o.o.o.o.o.o.o.o.o.o.o.o.o.o.o.o.o.o.o.o.o.o.o.o.o.o.o.o.o.o.o.o.o.o.o.o.o.o.o.o.w =.k.e.V ",
"< _ 2.K 3 o.o.o.o.o.o.o.o.o.o.o.o.o.o.o.o.o.o.o.o.o.o.o.o.o.o.o.o.o.o.o.o.o.o.o.o.o.o.o.o.o.o.o.o.o.o.o.o.o.o.o.o.o.o.w / s.7.M ",
"; R ' A 3 o.o.o.o.o.o.o.o.o.o.o.o.o.o.o.o.o.o.o.o.o.o.o.o.o.o.o.o.o.o.o.o.o.o.o.o.o.o.o.o.o.o.o.o.o.o.o.o.o.o.o.o.o.o.w T w.-.c ",
"* D Q C 3 o.o.o.o.o.o.o.o.o.o.o.o.o.o.o.o.o.o.o.o.o.o.o.o.o.o.o.o.o.o.o.o.o.o.o.o.o.o.o.o.o.o.o.o.o.o.o.o.o.o.o.o.o.o.w U 1.~ g ",
"% M G k 3 o.o.o.o.o.o.o.o.o.o.o.o.o.o.o.o.o.o.o.o.o.o.o.o.o.o.o.o.o.o.o.o.o.o.o.o.o.o.o.o.o.o.o.o.o.o.o.o.o.o.o.o.o.o.w H ` I < ",
"$ g M f 2 o.o.o.o.o.o.o.o.o.o.o.o.o.o.o.o.o.o.o.o.o.o.o.o.o.o.o.o.o.o.o.o.o.o.o.o.o.o.o.o.o.o.o.o.o.o.o.o.o.o.o.o.o.o.w C I D = ",
"O > 1 d 3 o.o.o.o.o.o.o.o.o.o.o.o.o.o.o.o.o.o.o.o.o.o.o.o.o.o.o.o.o.o.o.o.o.o.o.o.o.o.o.o.o.o.o.o.o.o.o.o.o.o.o.o.o.o.w l D M * ",
"O ; g d 3 o.X.o.o.o.o.o.o.o.o.o.o.o.o.o.o.o.o.o.o.o.o.o.o.o.o.o.o.o.o.o.o.o.o.o.o.o.o.o.o.o.o.o.o.o.o.o.o.o.o.o.o.o.o.w l V n * ",
"@ > c - 2 o.o.o.o.o.o.o.o.o.o.o.o.o.o.o.o.o.o.o.o.o.o.o.o.o.o.o.o.o.o.o.o.o.o.o.o.o.o.o.o.o.o.o.o.o.o.o.o.o.o.o.o.o.o.w l S m * ",
"@ < c d 2 o.o.o.o.o.o.o.o.o.o.o.o.o.o.o.o.o.o.o.o.o.o.o.o.o.o.o.o.o.o.o.o.o.o.o.o.o.o.o.o.o.o.o.o.o.o.o.o.o.o.o.o.o.o.w z D B * ",
"@ < h d 2 o.o.o.o.o.o.o.o.o.o.o.o.o.o.o.o.o.o.o.o.o.o.o.o.o.o.o.o.o.o.o.o.o.o.o.o.o.o.o.o.o.o.o.o.o.o.o.o.o.o.o.o.o.o.w z I V = ",
"@ g m f 2 o.o.o.o.o.o.o.o.o.o.o.o.o.o.o.o.o.o.o.o.o.o.o.o.o.o.o.o.o.o.o.o.o.o.o.o.o.o.o.o.o.o.o.o.o.o.o.o.o.o.o.o.X.o.w z R D ; ",
"$ g M f 2 o.X.o.o.o.o.o.o.o.o.o.o.o.o.o.o.o.o.o.o.o.o.o.o.o.o.o.o.o.o.o.o.o.o.o.o.o.o.o.o.o.o.o.o.o.o.o.o.o.o.o.o.o.o.w A W L ; ",
"$ c S f 2 o.o.o.o.o.o.o.o.o.o.o.o.o.o.o.o.o.o.o.o.o.o.o.o.o.o.o.o.o.o.o.o.o.o.o.o.o.o.o.o.o.o.o.o.o.o.o.o.o.o.o.o.o.o.w H ~ I > ",
"$ m D k 2 o.o.o.o.o.o.o.o.o.o.o.o.o.o.o.o.o.o.o.o.o.o.o.o.o.o.o.o.o.o.o.o.o.o.o.o.o.o.o.o.o.o.o.o.o.o.o.o.o.o.o.o.o.o.w J ` E < ",
"@ n B k 3 o.o.o.o.o.o.o.o.o.o.o.o.o.o.o.o.o.o.o.o.o.o.o.o.o.o.o.o.o.o.o.o.o.o.o.o.o.o.o.o.o.o.o.o.o.o.o.o.o.o.o.o.o.o.w U ~ I > ",
"+ < x k 3 o.X.o.o.o.o.o.o.o.o.o.o.o.o.o.o.o.o.o.o.o.o.o.o.o.o.o.o.o.o.o.o.o.o.o.o.o.o.o.o.o.o.o.o.o.o.o.o.o.o.o.o.o.o.t U G V = ",
"O = ; k 3 o.o.o.o.o.o.o.o.o.o.o.o.o.o.o.o.o.o.o.o.o.o.o.o.o.o.o.o.o.o.o.o.o.o.o.o.o.o.o.o.o.o.o.o.o.o.o.o.o.o.o.X.o.o.t U B c % ",
"X @ % l 6 o.o.o.o.o.o.o.o.o.o.o.o.o.o.o.o.o.o.o.o.o.o.o.o.o.o.o.o.o.o.o.o.o.o.o.o.o.o.o.o.o.o.o.o.o.o.o.o.o.o.o.o.o.o.w T g > + ",
"  O O m & } o.o.o.o.o.o.o.o.o.o.o.o.o.o.o.o.o.o.o.o.o.o.o.o.o.o.o.o.o.o.o.o.o.o.o.o.o.o.o.o.o.o.o.o.o.o.o.o.o.o.X.o.{ N ` % % o ",
". $ * g Z :  .o.X.o.o.o.o.o.o.o.o.o.o.o.o.o.o.o.o.o.o.o.o.o.o.o.o.o.o.o.o.o.o.o.o.o.o.o.o.o.o.o.o.o.o.o.o.o.o.X.o.} n 5.I c 1 O ",
"= = M G _ L 1 ..o.o.o.o.o.o.o.o.o.o.o.o.o.o.o.o.o.o.o.o.o.o.o.o.o.o.o.o.o.o.o.o.o.o.o.o.o.o.o.o.o.o.o.o.o.o.o.o.} n 4.t.<.~ m V ",
"< m D ` 4.6.L b O.o.o.o.o.o.o.o.o.o.o.o.o.o.o.o.o.o.o.o.o.o.o.o.o.o.o.o.o.o.o.o.o.o.o.o.o.o.o.o.o.o.o.o.o.o.o.} c 5.n.m.a.*.W F ",
"; ; V P ] 9.4.B x ..o.o.o.o.o.o.o.o.o.o.o.o.o.o.o.o.o.o.o.o.o.o.o.o.o.o.o.o.o.o.o.o.o.o.o.o.o.o.o.o.o.o.o.o.} x %.c.B.d.2.&.B S ",
"= = * M S ~ 4.&.h 9 } o.o.o.o.o.o.o.o.o.o.o.o.o.o.o.o.o.o.o.o.o.o.o.o.o.o.o.o.o.o.o.o.o.o.o.o.o.o.o.o.o.o.} v T s.v.u.] ~ n B B ",
"% % = $ V n ~ ,.R - 8 X.o.o.o.o.o.o.o.o.o.o.o.o.o.o.o.o.o.o.o.o.o.o.o.o.o.o.o.o.o.o.o.o.o.o.o.o.o.o.o.o.X.0 H 3.s.t.E ' < m h n "
};
