/* XPM */
static char *space_door_opened_filled_64_2_shrinked1745107922[] = {
/* columns rows colors chars-per-pixel */
"64 64 94 2 ",
"   c #0E0F12",
".  c #0F1114",
"X  c #121316",
"o  c #14161A",
"O  c #171A1E",
"+  c #181A1E",
"@  c #1B1E23",
"#  c #1E2126",
"$  c #1E2328",
"%  c #22252A",
"&  c #24292E",
"*  c #262A31",
"=  c #2A2E34",
"-  c #2D3137",
";  c #2E3339",
":  c #31363C",
">  c #34383F",
",  c #363A41",
"<  c #393E45",
"1  c #3A3F48",
"2  c #3B4046",
"3  c #3E424A",
"4  c #41464D",
"5  c #43484E",
"6  c #454A52",
"7  c #494E55",
"8  c #4B4F58",
"9  c #4B5057",
"0  c #4D5259",
"q  c #51565C",
"w  c #54585F",
"e  c #535760",
"r  c #565A62",
"t  c #595E65",
"y  c #5C6067",
"u  c #5D626A",
"i  c #61666D",
"p  c #63686F",
"a  c #616770",
"s  c #666B72",
"d  c #6A6E75",
"f  c #6B6E78",
"g  c #6D7175",
"h  c #6D7279",
"j  c #717376",
"k  c #72757B",
"l  c #75787E",
"z  c #787A7F",
"x  c green",
"c  c #757980",
"v  c #7A7D84",
"b  c #7D8187",
"n  c #7E8389",
"m  c #81858B",
"M  c #85898E",
"N  c #868A91",
"B  c #8A8D93",
"V  c #8D9196",
"C  c #8F9298",
"Z  c #92969B",
"A  c #96999E",
"S  c #999B9F",
"D  c #979BA0",
"F  c #9A9DA2",
"G  c #9EA1A6",
"H  c #9FA2A8",
"J  c #A2A5AA",
"K  c #A6A9AE",
"L  c #A9ACAF",
"P  c #AAADB1",
"I  c #AEB1B5",
"U  c #B0B3B7",
"Y  c #B3B5B9",
"T  c #B7B9BD",
"R  c #B9BBBE",
"E  c #BBBDC1",
"W  c #BEC1C4",
"Q  c #C1C3C5",
"!  c #C5C7CA",
"~  c #C7C8CC",
"^  c #C9CBCD",
"/  c #CDCED1",
"(  c #CFD0D3",
")  c #D2D2D5",
"_  c #D5D6D9",
"`  c #D7D8DB",
"'  c #DBDBDE",
"]  c #DEDEE1",
"[  c #DFE0E2",
"{  c #E1E2E4",
"}  c #E7E7E9",
"|  c #ECEDED",
" . c #F2F2F3",
".. c #FDFDFD",
/* pixels */
"S D A J R R R ! v = > : ; : > > > : : , , > > > > , , , , : , , , , ; , , < , , , , < < , , , , 1 1 , , , 1 ; B ] ) ) _ E I U Y ",
"F G G Y E R Q U q t i p s p i i i s s p i i s f s p p s d g s s s d h h s s s h h f s s f h h f s f h h h f s t ~ ] _ ` ( T T E ",
"J J I E E E ~ z 9 t t M Z k r t d Z C i t t m D m t t s Z D d i t v G V u a a C F v u a c F D s u a V K M t s e m { ` ' ] / E W ",
"K P E Q W ~ L 0 u b Z Z Z Z Z Z Z S A Z Z D D D D A D D G F F F F F G G F G G G J J F F J J J H G G J J J K C k t ! } ] ] ] / ~ ",
"K Y Q W W ~ d g V F S F F F G F F J F J G G J J J J J J J K J J K K K K K K P K K P P P K P P P I P P P P P U Y n v } ] ] { ` ~ ",
"U E Q E ~ G t K I B d d d s d d d d d d d d d d d d d d j f h f h c h k c h h c c k k k c c k c c c c c v v J ~ W s R } ] [ [ ) ",
"R E E E Q p Z T P h 4 Z F F F F F F F F D F D F F F F F D F D F D F F F F F F F F F F F D D D F D F D F D 7 n ~ _ K c { { [ [ { ",
"R R R ~ Z k Q R J 0 F x x x x x x x x x x x x x x x x x x x x x x x x x x x x x x x x x x x x x x x x x x D 8 E ` { N P | ] [ [ ",
"R R R R d Y ^ E m i x x x x x x x x x x x x x x x x x x x x x x x x x x x x x x x x x x x x x x x x x x x x q V { | ` n ] { { ] ",
"R Y ^ N Z ` ( U y ^ x x x x x x x x x x x x x x x x x x x x x x x x x x x x x x x x x x x x x x x x x x x x R 8 (  ...Y J | ] { ",
"Y R I z ( ) ^ v B x x x x x x x x x x x x x x x x x x x x x x x x x x x x x x x x x x x x x x x x x x x x x x d N  ... .C ) } ] ",
"U ! v L ) ( J i x x x x x x x x x x x x x x x x x x x x x x x x x x x x x x x x x x x x x x x x x x x x x x x ' 0 ^  .../ Z | ' ",
"^ A b ) ( E u L x x x x x x x x x x x x x x x x x x x x x x x x x x x x x x x x x x x x x x x x x x x x x x x x Z h | ....F E  .",
"Y k T ( ) c i x x x x x x x x x x x x x x x x x x x x x x x x x x x x x x x x x x x x x x x x x x x x x x x x x x t K ....} N | ",
"t S ^ ) F 1 ! x x x x x x x x x x x x x x x x x x x x x x x x x x x x x x x x x x x x x x x x x x x x x x x x x x R 0 ) ....W c ",
"q Y ) R 1 j x x x x x x x x x x x x x x x x x x x x x x x x x x x x x x x x x x x x x x x x x x x x x x x x x x x x g d  ...} u ",
"w L ) v - x x x x x x x x x x x x x x x x x x x x x x x x x x x x x x x x x x x x x x x x x x x x x x x x x x x x x ' 3 P ..' s ",
"9 J ^ k j x x x x x x x x x x x x x x x x x x x x x x x x x x x x x x x x x x x x x x x x x x x x x x x x x x x x x x g V ..) u ",
"7 F Q d l x x x x x x x x x x x x x x x x x x x x x x x x x x x x x x x x x x x x x x x x x x x x x x x x x x x x x x z B  .~ t ",
"5 Z Y p j x x x x x x x x x x x x x x x x x x x x x x x x x x x x x x x x x x x x x x x x x x x x x x x x x x x x x x k m { E q ",
"4 N K i k x x x x x x x x x x x x x x x x x x x x x x x x x x x x x x x x x x x x x x x x x x x x x x x x x x x x x x k v ` U 0 ",
"< v J w j x x x x x x x x x x x x x x x x x x x x x x x x x x x x x x x x x x x x x x x x x x x x x x x x x x x x x x k k / K 8 ",
"> z A q j x x x x x x x x x x x x x x x x x x x x x x x x x x x x x x x x x x x x x x x x x x x x x x x x x x x x x x k f W F 6 ",
"> j B 8 j x x x x x x x x x x x x x x x x x x x x x x x x x x x x x x x x x x x x x x x x x x x x x x x x x x x x x x k a U C 5 ",
": s m 5 j x x x x x x x x x x x x x x x x x x x x x x x x x x x x x x x x x x x x x x x x x x x x x x x x x x x x x x j u K N 3 ",
"= y z 4 j x x x x x x x x x x x x x x x x x x x x x x x x x x x x x x x x x x x x x x x x x x x x x x x x x x x x x x j r D v 1 ",
"= w d 1 j x x x x x x x x x x x x x x x x x x x x x x x x x x x x x x x x x x x x x x x x x x x x x x x x x x x x x x k q B l , ",
"= 9 i , j x x x x x x x x x x x x x x x x x x x x x x x x x x x x x x x x x x x x x x x x x x x x x x x x x x x x x x j 8 m s > ",
"& 5 t : g x x x x x x x x x x x x x x x x x x x x x x x x x x x x x x x x x x x x x x x x x x x x x x x x x x x x x x j 7 c u : ",
"% 3 0 ; j x x x x x x x x x x x x x x x x x x x x x x x x x x x x x x x x x x x x x x x x x x x x x x x x x x x x x x j 4 s r = ",
"% , 6 = j x x x x x x x x x x x x x x x x x x x x x x x x x x x x x x x x x x x x x x x x x x x x x x x x x x x x x x j 3 t 8 = ",
"# : 3 * j x x x x x x x x x x x x x x x x x x x x x x x x x x x x x x x x x x x x x x x x x x x x x x x x x x x x x x k 1 e 6 = ",
"@ ; < & j x x x x x x x x x x x x x x x x x x x x x x x x x x x x x x x x x x x x x x x x x x x x x x x x x x x x x x k < 0 4 % ",
"@ - < & j x x x x x x x x x x x x x x x x x x x x x x x x x x x x x x x x x x x x x x x x x x x x x x x x x x x x x x k , 0 4 & ",
"@ ; < & j x x x x x x x x x x x x x x x x x x x x x x x x x x x x x x x x x x x x x x x x x x x x x x x x x x x x x x j , 0 5 & ",
"@ : < % g x x x x x x x x x x x x x x x x x x x x x x x x x x x x x x x x x x x x x x x x x x x x x x x x x x x x x x j < q 5 * ",
"@ : 1 & g x x x x x x x x x x x x x x x x x x x x x x x x x x x x x x x x x x x x x x x x x x x x x x x x x x x x x x j < e 6 * ",
"# : 1 & j x x x x x x x x x x x x x x x x x x x x x x x x x x x x x x x x x x x x x x x x x x x x x x x x x x x x x x j < e 7 = ",
"# , 4 & j x x x x x x x x x x x x x x x x x x x x x x x x x x x x x x x x x x x x x x x x x x x x x x x x x x x x x x j 1 t 8 = ",
"# , 4 * j x x x x x x x x x x x x x x x x x x x x x x x x x x x x x x x x x x x x x x x x x x x x x x x x x x x x x x j 1 t 8 = ",
"# , 6 = f x x x x x x x x x x x x x x x x x x x x x x x x x x x x x x x x x x x x x x x x x x x x x x x x x x x x x x j 4 t e - ",
"% 1 6 = g x x x x x x x x x x x x x x x x x x x x x x x x x x x x x x x x x x x x x x x x x x x x x x x x x x x x x x j 4 s e - ",
"$ 1 7 - g x x x x x x x x x x x x x x x x x x x x x x x x x x x x x x x x x x x x x x x x x x x x x x x x x x x x x x j 4 f r - ",
"% 1 0 - j x x x x x x x x x x x x x x x x x x x x x x x x x x x x x x x x x x x x x x x x x x x x x x x x x x x x x x k 6 f t ; ",
"% 3 0 - g x x x x x x x x x x x x x x x x x x x x x x x x x x x x x x x x x x x x x x x x x x x x x x x x x x x x x x j 7 f t , ",
"% 4 q : g x x x x x x x x x x x x x x x x x x x x x x x x x x x x x x x x x x x x x x x x x x x x x x x x x x x x x x j 8 c a : ",
"% 5 0 : j x x x x x x x x x x x x x x x x x x x x x x x x x x x x x x x x x x x x x x x x x x x x x x x x x x x x x x j 8 k u : ",
"# < 6 ; j x x x x x x x x x x x x x x x x x x x x x x x x x x x x x x x x x x x x x x x x x x x x x x x x x x x x x x l 8 a e ; ",
"# : < : j x x x x x x x x x x x x x x x x x x x x x x x x x x x x x x x x x x x x x x x x x x x x x x x x x x x x x x l 0 r 9 = ",
"@ - , : j x x x x x x x x x x x x x x x x x x x x x x x x x x x x x x x x x x x x x x x x x x x x x x x x x x x x x x z q 9 5 & ",
"+ * - , j x x x x x x x x x x x x x x x x x x x x x x x x x x x x x x x x x x x x x x x x x x x x x x x x x x x x x x v q 5 2 % ",
"o % * , j x x x x x x x x x x x x x x x x x x x x x x x x x x x x x x x x x x x x x x x x x x x x x x x x x x x x x x v r 3 > @ ",
"X # % , k x x x x x x x x x x x x x x x x x x x x x x x x x x x x x x x x x x x x x x x x x x x x x x x x x x x x x x z t : - + ",
"  + # 2 : x x x x x x x x x x x x x x x x x x x x x x x x x x x x x x x x x x x x x x x x x x x x x x x x x x x x x ] 5 g * % + ",
"  # @ 3 * j x x x x x x x x x x x x x x x x x x x x x x x x x x x x x x x x x x x x x x x x x x x x x x x x x x x x g t g = - + ",
"o & - < y & ~ x x x x x x x x x x x x x x x x x x x x x x x x x x x x x x x x x x x x x x x x x x x x x x x x x x Q < S w 6 3 @ ",
"% & 5 6 g 4 q x x x x x x x x x x x x x x x x x x x x x x x x x x x x x x x x x x x x x x x x x x x x x x x x x x q l G f f 2 < ",
"1 : 5 f f z & P x x x x x x x x x x x x x x x x x x x x x x x x x x x x x x x x x x x x x x x x x x x x x x x x S 4 I J J s 0 i ",
"- 6 9 z C C q 4 x x x x x x x x x x x x x x x x x x x x x x x x x x x x x x x x x x x x x x x x x x x x x x x x 3 M ( _ Y c j 8 ",
"- : t t C A m ; N x x x x x x x x x x x x x x x x x x x x x x x x x x x x x x x x x x x x x x x x x x x x x x j 0 E ' ` N V 0 0 ",
": = 6 w s Z V q - ) x x x x x x x x x x x x x x x x x x x x x x x x x x x x x x x x x x x x x x x x x x x x Q : B ^ ` G m s 6 8 ",
"= = = w q v V l ; t x x x x x x x x x x x x x x x x x x x x x x x x x x x x x x x x x x x x x x x x x x x x q q P / R c n 4 6 6 ",
"= = = : q q m m 0 # G x x x x x x x x x x x x x x x x x x x x x x x x x x x x x x x x x x x x x x x x x x F , v R E v v q 4 6 4 ",
"& & = % 6 4 i z i & > x x x x x x x x x x x x x x x x x x x x x x x x x x x x x x x x x x x x x x x x x x 3 8 C P Z i j : 3 3 2 "
};
