/* XPM */
static char *space_door_641745104936[] = {
/* columns rows colors chars-per-pixel */
"64 39 96 2 ",
"   c #020305",
".  c #060608",
"X  c #07080A",
"o  c #0A0B0D",
"O  c #0E0F12",
"+  c #0F1013",
"@  c #121215",
"#  c #151619",
"$  c #17181D",
"%  c #181A1E",
"&  c #1B1D22",
"*  c #1E2126",
"=  c #1F2328",
"-  c #202227",
";  c #22252B",
":  c #26292E",
">  c #272B30",
",  c #2A2D33",
"<  c #2D3136",
"1  c #2E3239",
"2  c #31353C",
"3  c #34383E",
"4  c #363B41",
"5  c #393E45",
"6  c #3B3F48",
"7  c #3C4047",
"8  c #3E4249",
"9  c #41464D",
"0  c #44484F",
"q  c #434750",
"w  c #464A52",
"e  c #494D55",
"r  c #4B4F58",
"t  c #4B5057",
"y  c #4D525A",
"u  c #51565E",
"i  c #53585F",
"p  c #525760",
"a  c #555A62",
"s  c #595E65",
"d  c #5C6067",
"f  c #5D626A",
"g  c #61666D",
"h  c #64686F",
"j  c #656971",
"k  c #6A6E74",
"l  c #6C7076",
"z  c #6E7379",
"x  c #71767C",
"c  c #74787E",
"v  c #767B81",
"b  c #7A7E84",
"n  c #7D8187",
"m  c #7E8289",
"M  c #808387",
"N  c #81858B",
"B  c #85898E",
"V  c #888B8F",
"C  c #868B91",
"Z  c #898D93",
"A  c #8D9196",
"S  c #8F9398",
"D  c #92969B",
"F  c #96999E",
"G  c #979AA0",
"H  c #9A9DA2",
"J  c #9EA1A6",
"K  c #A2A5AA",
"L  c #A6A9AE",
"P  c #A8ABAF",
"I  c #AAADB2",
"U  c #AEB1B5",
"Y  c #B0B3B7",
"T  c #B3B5B9",
"R  c #B6B8BC",
"E  c #B9BBBE",
"W  c #BCBEC1",
"Q  c #BFC1C4",
"!  c #C1C3C6",
"~  c #C4C6C9",
"^  c #C7C9CC",
"/  c #CACBCE",
"(  c #CDCED1",
")  c #CFD0D3",
"_  c #D1D2D5",
"`  c #D6D7D9",
"'  c #D7D8DB",
"]  c #DBDCDE",
"[  c #DEDFE1",
"{  c #DFE0E2",
"}  c #E0E1E3",
"|  c #E9EAEB",
" . c #EFEFF0",
".. c #EFF0F1",
"X. c #F0F0F2",
"o. c #FEFEFE",
/* pixels */
"F H F L E E E ^ l 7 0 9 7 9 0 0 q 8 8 w w w 0 8 0 t w w 8 q w w r w 8 w e r e 8 r r r r 8 8 8 r r r 8 8 8 r 8 v { ) _ ' Q W I Y ",
"J J L E E E ^ V e s g c M l d d k M m h f d v B x f f j m C l g f v C n g g j C m v f g v D m v j g m G v v v r G { ' ' ' Q W Q ",
"L I W ! Q / D i k V F F J F F F H J J G G G J K J J J J J L J J J J P L J J J I L K K J L I L K K K U U I L G m g J } ] } } Q Q ",
"U W W W / F d J P S l x x x c c x x x v v c v x c v v v v v v b n b n b n n n n n n m m m n m m m m m m m m L Q W v W } ] } } ' ",
"E W E ~ K h U E L g < 2 4 4 4 4 4 4 4 4 4 4 4 5 5 5 5 5 5 4 5 4 5 5 5 5 7 7 7 5 6 4 7 6 7 7 7 7 8 8 8 7 4 4 v W [ ( m Q | ] } } ",
"E T ! P c Q _ E n 9 7 u s s d s s s s s s s s s s s s d d s s p s d f f f f g f f s f g g g g g g g j g p 8 2 m [ ..{ m Q ..] } ",
"Y Q P b ~ ` ~ V e 8 f c l k k k k k k k k k l k k l l z l v b v v n v z z v z v v v v v v v v v v n v n n v 7 4 D ..o.| G _ | ] ",
"! L v Q ` ~ B e 8 f n k e t e e r e e r r r e e e t t t y m A C m S m y y y y r p r r p p r p p p p p p n m g 8 4 J ..o.| G Q ..",
"F b W ` W l 5 5 f n x u u i i i u a a a a s a s s s a a g Z F D G J C d s f f d f f f f s f f g f g f f g m C l 8 7 S ..o.| G ^ ",
"t U _ T u 2 e x S S c x c x x c x c c c c c c x c v v c v H L K L I J n n n n n n n m n n n m m m C m C C C L J n y 7 v { o.{ g ",
"u L ( b : d S Y E T T Y Y U U I I P L L L L L L L L L L L W ! Q Q Q W L L I L L I I W Y W W W Q Q Q / / ) _ _ _ Q K j 4 J o.` g ",
"0 F E v , M I R T T Y Y U U U U I I I I I I I I I I U U I ! / ^ ) ) Q Y T Y W W W W W W Q Q Q Q Q / ^ ^ ( ) _ _ _ Q Z 4 D | Q d ",
"9 V L k : M T P K L K L L L L L I L I I I I U I Y U Y I R ^ / ^ / ( / W Y T W W W W W W W W Q Q Q Q Q Q Q Q ^ Q ( ) C 1 C ` U p ",
"4 b D f : x P D V V A A S D D D D F F G H H H H K H K T W ! ! Q Q Q Q Q W L L I K K I U L L I U Y I I I L L I L W Q v < n Q J e ",
"2 l V i : h F c k z z x x c c c v v b b M m M M M C L I U U Y Y W W U W W I S m m Z Z m m m S m Z m m Z C C C m H I l < z I A 8 ",
"< d c y ; i N g t i i i i i i i s s s s s f f f h S H F H H K H J L J J G J G k k j j j k j k j k j j j g j j f n G f , j G m 8 ",
"> u g w = e l t 4 7 7 5 7 7 7 8 8 8 8 q 8 q q 8 k V M B C N M m V V V V V V A l w e e e e t t e 8 8 y r e 8 y 8 j m u , f m z 4 ",
": 9 u 9 = 5 d 7 > < < < 1 1 1 1 1 1 2 1 2 2 1 8 l k k j f s f g g g g g z x x x 0 3 4 3 3 3 3 3 7 5 4 4 4 4 7 2 y v 8 : p z f 1 ",
"- 5 9 4 = 2 w 7 5 5 5 7 5 7 7 7 8 8 8 8 8 8 8 y a a i 9 9 e 9 9 9 9 0 0 0 a d d u 0 e e e w w e 8 r 8 y e e e e u f 8 : y s y < ",
"& 1 4 4 & < 7 8 8 7 8 8 8 8 q q q q q w w w w w 9 0 3 1 5 2 2 2 2 2 2 2 2 7 e e t t t y t t y y p y y p y y y p y 8 4 : 8 y 8 : ",
"& < 4 4 & > 3 3 5 2 5 5 4 4 4 5 3 7 7 7 7 7 7 7 9 3 : : , ; : : : : : : , , 9 0 0 9 9 9 9 9 9 0 8 8 8 8 8 e 8 e 8 8 < : e r 8 > ",
"& 1 4 1 % ; 2 1 1 1 1 1 2 2 2 2 2 2 2 2 4 2 2 2 3 3 ; : : - - - - - : - - : 3 5 5 5 5 5 5 5 5 7 8 8 8 8 8 8 8 8 8 7 , = 8 u 8 > ",
"& 1 5 4 & : 2 2 2 4 3 2 3 4 5 4 7 3 7 7 7 7 7 7 5 5 , : < ; : : : : : : : , 5 0 9 7 9 9 9 9 9 9 8 8 8 8 8 8 8 8 w 8 < ; 8 u e , ",
"* 4 7 2 & < 7 7 7 8 8 8 8 8 8 8 8 8 8 8 8 8 8 8 9 9 3 < 3 < , < 1 1 1 1 < 4 e 0 e e e e e e t t p y y y u y p y y r 4 > y a t , ",
"* 4 8 4 & < 8 4 > , , , , , , , < < < < < < < 7 t t w 7 4 9 9 5 4 4 4 4 7 r u u 9 1 2 2 2 3 2 3 3 3 2 2 3 3 3 3 8 s 7 > r f y < ",
"= 5 q 5 & 4 r 1 & = = = ; ; ; : = : : ; : ; : < i i i y 9 5 9 e w 9 9 w i s s s 2 , , , , , , , < , , , < , < : 8 f 8 > y g p < ",
"= 8 e 7 * 4 y 1 : > > > > > > > , , , , < < < > 9 f s s a u q w y w y s f f j w < 1 1 1 1 2 2 2 2 2 2 2 3 2 3 < 8 j 8 , a j s 1 ",
"= 8 y 8 * 4 r 4 = = : : ; ; : : : : : : : : : , > w d a a a u u i a s d d g y , < < < < 1 , < < < < < 2 < < < < 8 j 8 < d x f 2 ",
"= 8 e 8 = 1 8 > & * & * * & = = * * = = = = ; = - ; 4 y t e e e r r r y u 9 : ; : : : : : : : : : : : : : : > ; 5 p 4 , s j f 4 ",
"& 4 7 8 * > 4 = # $ $ $ $ $ $ $ $ $ $ $ $ $ % $ % % $ : 3 9 9 5 9 9 9 5 : % % % & & % & % & & & & & & & & * * % < w 1 , d y e > ",
"& > < 8 * * < & O + O + O + + + + + + + @ @ + + @ @ @ @ @ 2 3 2 3 4 2 @ @ # # @ @ @ # # @ @ @ # # # @ # $ @ # @ = 7 > , g 8 7 > ",
"+ = ; w & $ = * X . X X X X X X X o X o o o o o X X o X o : , : , , : o o o o o o o o o o o O o o o o o o o o + > < * > j 4 1 & ",
"+ $ % 8 > # # & % .   . .     .     .   .   .   . .   . . & - * - - & . . . . . . . . . . . . .   . . . . . . - ; - & 9 l ; : $ ",
"@ ; > 5 y > & & % %                                       & - & - - &                                     . - ; : - 6 Z a 9 3 % ",
"< < 0 a k s , f N M b k h k k l k l l x x x c c c c b b b D H G H J H M M M M M M M N N N B B N N V V V A L U E n 4 Z H M k 9 e ",
"1 7 y z Z A a 6 M H H F V V Z Z S S S D D D D G G H H H H Y W R E Q E L P P P P I I I I I U U U U U Y U ^ ) ' J 9 V ) _ I b h u ",
"1 < e i v D Z e 4 s k k l l z l z x x x v v v v v b b b b M M b M N N N B B B B V Z V Z Z Z Z A Z S Z S S D x 2 c / ] Y B v w r ",
"< , > 0 t l Z v 5 < 4 9 0 9 w w w w e e r e e r y y e u y y u r u i u i i u i i p i p p a a a a s s s s s e 2 h U ^ K x l 6 q q ",
": > , = e 8 k b s 1 : , , < 2 < , 2 < 2 < 2 2 2 3 3 3 3 3 3 4 3 4 4 3 5 5 5 5 3 5 5 5 5 5 5 5 5 4 5 5 5 5 3 u Z U H g x 3 9 9 5 "
};
