/* XPM */
static char *space_door_opened_filled_64_shrinked1745105572[] = {
/* columns rows colors chars-per-pixel */
"64 64 178 2 ",
"   c #0E0F12",
".  c #0F1114",
"X  c #14161A",
"o  c #181A1E",
"O  c #14161A",
"+  c #1B1E23",
"@  c #1E2126",
"#  c #1F2328",
"$  c #22252A",
"%  c #25292E",
"&  c #282B2F",
"*  c #25372E",
"=  c #272B31",
"-  c #2A2E34",
";  c #2D2A39",
":  c #30283B",
">  c #31223D",
",  c #2C3136",
"<  c #2E3339",
"1  c #273530",
"2  c #31363C",
"3  c #33393E",
"4  c #15721B",
"5  c #18751E",
"6  c #2C5435",
"7  c #2E5A38",
"8  c #33543D",
"9  c #1C7422",
"0  c #236E2A",
"q  c #217927",
"w  c #25732D",
"e  c #247B2B",
"r  c #2F6F38",
"t  c #276D30",
"y  c #362942",
"u  c #392B45",
"i  c #3C2D49",
"p  c #363A41",
"a  c #393E45",
"s  c #3E324A",
"d  c #373343",
"f  c #42354E",
"g  c #453752",
"h  c #493D56",
"j  c #4C3F58",
"k  c #463851",
"l  c #3A4146",
"z  c #3E434A",
"x  c #364541",
"c  c #41454D",
"v  c #42494E",
"b  c #464A52",
"n  c #494E55",
"m  c #4E425A",
"M  c #4A4F58",
"N  c #52445E",
"B  c #514F5E",
"V  c #4A5156",
"C  c #4D5359",
"Z  c #455F50",
"A  c #51565D",
"S  c #53595F",
"D  c #43654E",
"F  c #554762",
"G  c #564962",
"H  c #5A4D66",
"J  c #5B4E68",
"K  c #555761",
"L  c #555B62",
"P  c #595E65",
"I  c #5D516A",
"U  c #5C5868",
"Y  c #61536E",
"T  c #645770",
"R  c #695C75",
"E  c #675A73",
"W  c #576067",
"Q  c #5D636A",
"!  c #5F686E",
"~  c #596164",
"^  c #61666D",
"/  c #63696F",
"(  c #616770",
")  c #666B72",
"_  c #696E75",
"`  c #6E617A",
"'  c #6B6077",
"]  c #73627F",
"[  c #6C7077",
"{  c #6D7279",
"}  c #6F787A",
"|  c #71757C",
" . c #74797E",
".. c #199A1F",
"X. c #17A01C",
"o. c #0FBD12",
"O. c #14BA17",
"+. c #1D9C23",
"@. c #1D9323",
"#. c #259C2B",
"$. c #318839",
"%. c #2B9C32",
"&. c #22AB27",
"*. c #2CA932",
"=. c #05DB07",
"-. c #0BDB0C",
";. c #0FC212",
":. c #15C818",
">. c #14D017",
",. c #09E60A",
"<. c #02F502",
"1. c #00FF00",
"2. c #0FE910",
"3. c #438E4B",
"4. c #766881",
"5. c #7B6D86",
"6. c #7D6F88",
"7. c #767B81",
"8. c #7A7E84",
"9. c #7E7189",
"0. c #7E7C88",
"q. c #82758E",
"w. c #857690",
"e. c #867891",
"r. c #8A7D95",
"t. c #7C8286",
"y. c #7E8389",
"u. c #82858B",
"i. c #85888E",
"p. c #868B90",
"a. c #8A8E93",
"s. c #888592",
"d. c #94859D",
"f. c #8D9196",
"g. c #8F9299",
"h. c #92959B",
"j. c #969A9E",
"k. c #989A9F",
"l. c #9A8CA3",
"z. c #9F91A7",
"x. c #9A9DA2",
"c. c #979BA0",
"v. c #9DA2A5",
"b. c #9FA2A8",
"n. c #A0A7A7",
"m. c #A2A5AA",
"M. c #A4ABAC",
"N. c #A9ACAF",
"B. c #AAAEB1",
"V. c #AAA7B2",
"C. c #ADB1B5",
"Z. c #B0B4B7",
"A. c #B3B6BA",
"S. c #B7BBBD",
"D. c #B9BBBE",
"F. c #BAC0BF",
"G. c #BBBDC1",
"H. c #BEC1C3",
"J. c #C0C2C5",
"K. c #C5C7CA",
"L. c #C6C9CB",
"P. c #CACCCF",
"I. c #CDCED1",
"U. c #CED1D2",
"Y. c #D2D2D5",
"T. c #D5D6D9",
"R. c #D6D8DA",
"E. c #DBDBDE",
"W. c #DEDEE1",
"Q. c #DEE0E2",
"!. c #E1E2E4",
"~. c #E7E7E9",
"^. c #EBEDED",
"/. c #EDF1EF",
"(. c #EEF2F0",
"). c #F3F3F4",
"_. c #FDFDFD",
"`. c #F7FAF8",
/* pixels */
"k.c.k.m.G.D.D.K.q.& 3 < < 2 3 3 3 2 2 3 3 p 3 2 3 p p p 2 2 p p p p p p p p p p p p p a p p d a a p p p p l d a.W.U.Y.T.H.C.Z.Z.",
"x.v.v.A.G.G.G.Z.A ~ ^ ) _ / ^ / / ) ) / ^ ^ _ _ ) ( / ) [ { _ ( ) _ [ [ ) ) _ [ { _ _ ) [ { { _ _ _ { 7.{ _ ! W L.E.T.R.U.D.S.G.",
"m.m.B.J.G.G.L. .V S P u.h.| S P _ h.f.! P P y.c.y.~ T / h.c.[ Q P 0.v.a.Q ( ( g.v.8.Q Q 7.b.c.) ( ( a.m.s.Q ) A i.!.E.E.W.I.G.H.",
"m.B.G.J.J.L.N.C ^ u.h.h.h.h.h.h.h.j.k.h.k.j.c.c.x.k.k.k.x.x.x.x.x.x.b.b.x.b.x.b.m.b.v.v.x.m.m.m.b.b.m.m.m.m.f.7.P J.~.E.W.W.I.L.",
"N.A.J.H.H.P._ { a.x.j.j.k.k.x.k.x.v.x.v.v.v.v.v.v.v.v.v.n.n.n.n.v.M.M.M.M.b.M.M.M.M.M.M.M.M.M.M.B.M.B.B.M.B.Z.A.0.8.!.W.W.!.R.L.",
"Z.G.H.G.K.b.P m.Z.a.) 5.5.5.5.5.6.6.5.5.6.6.6.9.9.9.9.9.9.9.9.9.q.q.9.q.w.w.q.w.w.w.q.w.e.e.e.e.e.e.e.e.r.t.b.K.G._ G.^.W.!.!.Y.",
"G.D.G.G.J.) g.D.N.| x #.#.#.&.%.%.%.%.%.%.%.%.%.%.%.%.%.%.%.%.%.%.%.%.%.%.%.%.%.%.%.%.%.%.%.%.%.%.%.%.%.%.v u.K.T.N.7.!.!.W.W.!.",
"D.G.D.K.h.| J.D.n.Y #.1.1.1.1.1.1.1.1.1.1.1.1.1.1.1.1.1.1.1.1.1.1.1.1.1.1.1.1.1.1.1.1.1.1.1.1.1.1.1.1.1.1.+.T S.R.Q.p.V.^.W.W.!.",
"D.D.G.D.[ A.P.H.s.D <.1.<.1.1.<.<.1.1.<.1.1.<.1.<.1.<.1.<.1.<.1.1.<.1.1.<.1.1.<.1.1.<.1.<.1.1.<.<.1.1.<.1.<.x h.Q.^.T.y.Q.!.!.!.",
"D.A.K.p.j.R.P.C.` :.1.<.1.1.1.1.1.1.1.1.1.1.1.1.1.1.1.1.1.1.1.1.1.1.1.1.1.1.1.1.1.1.1.1.1.1.1.1.1.1.1.1.1.1.;.J U.)._.A.m./.W.W.",
"A.G.C. .P.Y.L.s.3.1.<.1.1.1.1.1.1.1.1.1.1.1.1.1.1.1.1.1.1.1.1.1.1.1.1.1.1.1.1.1.1.1.1.1.1.1.1.1.1.1.1.1.1.<.1.t l.^.`.).f.Y.!.!.",
"A.J.8.N.T.I.m.^ 2.1.1.1.1.1.1.1.1.1.1.1.1.1.1.1.1.1.1.1.1.1.1.1.1.1.1.1.1.1.1.1.1.1.1.1.1.1.1.1.1.1.1.1.1.1.1.=.A P.)._.I.h.^.W.",
"L.k.u.U.U.F.] *.1.<.1.1.1.1.1.1.1.1.1.1.1.1.1.1.1.1.1.1.1.1.1.1.1.1.1.1.1.1.1.1.1.1.1.1.1.1.1.1.1.1.1.1.1.1.<.1.@.w.^.`._.x.G.).",
"A.| D.I.P.0.D <.1.1.1.1.1.1.1.1.1.1.1.1.1.1.1.1.1.1.1.1.1.1.1.1.1.1.1.1.1.1.1.1.1.1.1.1.1.1.1.1.1.1.1.1.1.1.1.1.<.D V.`._.!.a.^.",
"S k.I.Y.j.m :.1.1.1.1.1.1.1.1.1.1.1.1.1.1.1.1.1.1.1.1.1.1.1.1.1.1.1.1.1.1.1.1.1.1.1.1.1.1.1.1.1.1.1.1.1.1.1.1.<.<.O.I U._._.G.8.",
"S Z.Y.D.m t 1.1.<.1.1.1.1.1.1.1.1.1.1.1.1.1.1.1.1.1.1.1.1.1.1.1.1.1.1.1.1.1.1.1.1.1.1.1.1.1.1.1.1.1.1.1.1.1.1.1.1.1.r 6.)._.!.^ ",
"S B.Y.u.& ,.1.<.1.1.1.1.1.1.1.1.1.1.1.1.1.1.1.1.1.1.1.1.1.1.1.1.1.1.1.1.1.1.1.1.1.1.1.1.1.1.1.1.1.1.1.1.1.1.1.1.1.1.-.z C._.W.) ",
"V m.L.q.4 1.1.1.1.1.1.1.1.1.1.1.1.1.1.1.1.1.1.1.1.1.1.1.1.1.1.1.1.1.1.1.1.1.1.1.1.1.1.1.1.1.1.1.1.1.1.1.1.1.1.1.1.<.1.9 z.`.I.Q ",
"n k.H.q.4 1.1.1.1.1.1.1.1.1.1.1.1.1.1.1.1.1.1.1.1.1.1.1.1.1.1.1.1.1.1.1.1.1.1.1.1.1.1.1.1.1.1.1.1.1.1.1.1.1.1.1.1.<.1.5 l.(.L.P ",
"v h.Z.] 4 1.<.1.1.1.1.1.1.1.1.1.1.1.1.1.1.1.1.1.1.1.1.1.1.1.1.1.1.1.1.1.1.1.1.1.1.1.1.1.1.1.1.1.1.1.1.1.1.1.1.1.1.1.1.9 d.!.G.A ",
"c p.M.` 4 1.1.1.1.1.1.1.1.1.1.1.1.1.1.1.1.1.1.1.1.1.1.1.1.1.1.1.1.1.1.1.1.1.1.1.1.1.1.1.1.1.1.1.1.1.1.1.1.1.1.1.1.1.1.9 r.R.Z.C ",
"l t.v.E 4 1.1.1.1.1.1.1.1.1.1.1.1.1.1.1.1.1.1.1.1.1.1.1.1.1.1.1.1.1.1.1.1.1.1.1.1.1.1.1.1.1.1.1.1.1.1.1.1.1.1.1.1.1.1.9 w.L.M.V ",
"p  .h.Y 5 1.1.1.1.1.1.1.1.1.1.1.1.1.1.1.1.1.1.1.1.1.1.1.1.1.1.1.1.1.1.1.1.1.1.1.1.1.1.1.1.1.1.1.1.1.1.1.1.1.1.1.1.<.1.9 5.H.x.n ",
"3 { p.H 5 1.<.1.1.1.1.1.1.1.1.1.1.1.1.1.1.1.1.1.1.1.1.1.1.1.1.1.1.1.1.1.1.1.1.1.1.1.1.1.1.1.1.1.1.1.1.1.1.1.1.1.1.1.1.9 4.C.g.c ",
"2 / t.B 5 1.1.1.1.1.1.1.1.1.1.1.1.1.1.1.1.1.1.1.1.1.1.1.1.1.1.1.1.1.1.1.1.1.1.1.1.1.1.1.1.1.1.1.1.1.1.1.1.1.1.1.1.1.1.9 ` n.p.z ",
", Q  .N 4 1.<.1.1.1.1.1.1.1.1.1.1.1.1.1.1.1.1.1.1.1.1.1.1.1.1.1.1.1.1.1.1.1.1.1.1.1.1.1.1.1.1.1.1.1.1.1.1.1.1.1.1.1.1.9 R c.0.a ",
"- S _ j 5 1.1.<.1.1.1.1.1.1.1.1.1.1.1.1.1.1.1.1.1.1.1.1.1.1.1.1.1.1.1.1.1.1.1.1.1.1.1.1.1.1.1.1.1.1.1.1.1.1.1.1.<.1.1.9 T p. .p ",
"& V ^ k 4 1.1.1.1.1.1.1.1.1.1.1.1.1.1.1.1.1.1.1.1.1.1.1.1.1.1.1.1.1.1.1.1.1.1.1.1.1.1.1.1.1.1.1.1.1.1.1.1.1.1.1.1.1.1.9 I t.) p ",
"& b A k 4 1.1.1.1.1.1.1.1.1.1.1.1.1.1.1.1.1.1.1.1.1.1.1.1.1.1.1.1.1.1.1.1.1.1.1.1.1.1.1.1.1.1.1.1.1.1.1.1.1.1.1.1.1.1.9 H } Q 2 ",
"$ c V f 4 1.1.1.1.1.1.1.1.1.1.1.1.1.1.1.1.1.1.1.1.1.1.1.1.1.1.1.1.1.1.1.1.1.1.1.1.1.1.1.1.1.1.1.1.1.1.1.1.1.1.1.<.1.1.9 F ! L , ",
"$ p v i 5 1.<.1.1.1.1.1.1.1.1.1.1.1.1.1.1.1.1.1.1.1.1.1.1.1.1.1.1.1.1.1.1.1.1.1.1.1.1.1.1.1.1.1.1.1.1.1.1.1.1.1.1.1.1.9 m P V - ",
"+ 2 l u 5 1.1.1.1.1.1.1.1.1.1.1.1.1.1.1.1.1.1.1.1.1.1.1.1.1.1.1.1.1.1.1.1.1.1.1.1.1.1.1.1.1.1.1.1.1.1.1.1.1.1.1.1.1.1.9 m A b - ",
"@ , 3 u 4 1.1.<.1.1.1.1.1.1.1.1.1.1.1.1.1.1.1.1.1.1.1.1.1.1.1.1.1.1.1.1.1.1.1.1.1.1.1.1.1.1.1.1.1.1.1.1.1.1.1.1.1.1.1.9 h V c % ",
"o 2 3 : 4 1.1.1.1.1.1.1.1.1.1.1.1.1.1.1.1.1.1.1.1.1.1.1.1.1.1.1.1.1.1.1.1.1.1.1.1.1.1.1.1.1.1.1.1.1.1.1.1.1.1.1.1.1.1.9 h n c $ ",
"@ < p u 4 1.1.1.1.1.1.1.1.1.1.1.1.1.1.1.1.1.1.1.1.1.1.1.1.1.1.1.1.1.1.1.1.1.1.1.1.1.1.1.1.1.1.1.1.1.1.1.1.1.1.1.<.1.1.9 h M v & ",
"@ 2 p y 4 1.1.1.1.1.1.1.1.1.1.1.1.1.1.1.1.1.1.1.1.1.1.1.1.1.1.1.1.1.1.1.1.1.1.1.1.1.1.1.1.1.1.1.1.1.1.1.1.1.1.1.1.1.1.9 h C v & ",
"@ 2 x y 4 1.1.1.1.1.1.1.1.1.1.1.1.1.1.1.1.1.1.1.1.1.1.1.1.1.1.1.1.1.1.1.1.1.1.1.1.1.1.1.1.1.1.1.1.1.1.1.1.1.1.1.1.1.1.9 h C n = ",
"@ < l y 4 1.<.1.1.1.1.1.1.1.1.1.1.1.1.1.1.1.1.1.1.1.1.1.1.1.1.1.1.1.1.1.1.1.1.1.1.1.1.1.1.1.1.1.1.1.1.1.1.1.1.1.1.<.1.9 h K n - ",
"# 2 l y 4 1.1.1.1.1.1.1.1.1.1.1.1.1.1.1.1.1.1.1.1.1.1.1.1.1.1.1.1.1.1.1.1.1.1.1.1.1.1.1.1.1.1.1.1.1.1.1.1.1.1.1.1.1.1.9 m L V = ",
"@ p z u 4 1.<.1.1.1.1.1.1.1.1.1.1.1.1.1.1.1.1.1.1.1.1.1.1.1.1.1.1.1.1.1.1.1.1.1.1.1.1.1.1.1.1.1.1.1.1.1.1.1.1.1.1.<.1.9 m P V , ",
"# p v u 4 1.1.1.1.1.1.1.1.1.1.1.1.1.1.1.1.1.1.1.1.1.1.1.1.1.1.1.1.1.1.1.1.1.1.1.1.1.1.1.1.1.1.1.1.1.1.1.1.1.1.1.1.1.1.9 m Q C , ",
"$ a b u 4 1.1.<.1.1.1.1.1.1.1.1.1.1.1.1.1.1.1.1.1.1.1.1.1.1.1.1.1.1.1.1.1.1.1.1.1.1.1.1.1.1.1.1.1.1.1.1.1.1.1.1.1.1.1.9 N ! K , ",
"$ a n s 4 1.1.1.1.1.1.1.1.1.1.1.1.1.1.1.1.1.1.1.1.1.1.1.1.1.1.1.1.1.1.1.1.1.1.1.1.1.1.1.1.1.1.1.1.1.1.1.1.1.1.1.1.<.1.9 F ) K < ",
"# z V s 4 1.1.1.1.1.1.1.1.1.1.1.1.1.1.1.1.1.1.1.1.1.1.1.1.1.1.1.1.1.1.1.1.1.1.1.1.1.1.1.1.1.1.1.1.1.1.1.1.1.1.1.1.1.1.9 G _ P < ",
"$ z C s 4 1.1.1.1.1.1.1.1.1.1.1.1.1.1.1.1.1.1.1.1.1.1.1.1.1.1.1.1.1.1.1.1.1.1.1.1.1.1.1.1.1.1.1.1.1.1.1.1.1.1.1.1.1.1.9 I { W 2 ",
"$ v C f 4 <.<.1.1.1.1.1.1.1.1.1.1.1.1.1.1.1.1.1.1.1.1.1.1.1.1.1.1.1.1.1.1.1.1.1.1.1.1.1.1.1.1.1.1.1.1.1.1.1.1.1.1.1.1.9 I } ^ 2 ",
"$ v C f 4 1.1.1.1.1.1.1.1.1.1.1.1.1.1.1.1.1.1.1.1.1.1.1.1.1.1.1.1.1.1.1.1.1.1.1.1.1.1.1.1.1.1.1.1.1.1.1.1.1.1.1.1.1.1.9 I { Q 2 ",
"$ p v f 4 1.1.1.1.1.1.1.1.1.1.1.1.1.1.1.1.1.1.1.1.1.1.1.1.1.1.1.1.1.1.1.1.1.1.1.1.1.1.1.1.1.1.1.1.1.1.1.1.1.1.1.1.<.1.9 I / K , ",
"@ 2 x f 4 1.1.1.1.1.1.1.1.1.1.1.1.1.1.1.1.1.1.1.1.1.1.1.1.1.1.1.1.1.1.1.1.1.1.1.1.1.1.1.1.1.1.1.1.1.1.1.1.1.1.1.1.1.1.q I S V - ",
"o , 2 g 5 1.1.1.1.1.1.1.1.1.1.1.1.1.1.1.1.1.1.1.1.1.1.1.1.1.1.1.1.1.1.1.1.1.1.1.1.1.1.1.1.1.1.1.1.1.1.1.1.1.1.1.1.1.1.q Y V c & ",
"o - , k 5 1.1.1.1.1.1.1.1.1.1.1.1.1.1.1.1.1.1.1.1.1.1.1.1.1.1.1.1.1.1.1.1.1.1.1.1.1.1.1.1.1.1.1.1.1.1.1.1.1.1.1.1.1.1.e T v l $ ",
"X $ & k 5 1.<.1.1.1.1.1.1.1.1.1.1.1.1.1.1.1.1.1.1.1.1.1.1.1.1.1.1.1.1.1.1.1.1.1.1.1.1.1.1.1.1.1.1.1.1.1.1.1.1.1.1.<.1.e E p p @ ",
". @ # h 9 1.<.1.1.1.1.1.1.1.1.1.1.1.1.1.1.1.1.1.1.1.1.1.1.1.1.1.1.1.1.1.1.1.1.1.1.1.1.1.1.1.1.1.1.1.1.1.1.1.1.1.1.1.1.e R < , o ",
"  o + c * ,.1.1.1.1.1.1.1.1.1.1.1.1.1.1.1.1.1.1.1.1.1.1.1.1.1.1.1.1.1.1.1.1.1.1.1.1.1.1.1.1.1.1.1.1.1.1.1.1.1.1.1.1.=.v | & & O ",
". + + l u 9 1.1.1.1.1.1.1.1.1.1.1.1.1.1.1.1.1.1.1.1.1.1.1.1.1.1.1.1.1.1.1.1.1.1.1.1.1.1.1.1.1.1.1.1.1.1.1.1.1.<.<.1.0 E _ & - o ",
"X & , a ~ : ;.1.<.1.1.1.1.1.1.1.1.1.1.1.1.1.1.1.1.1.1.1.1.1.1.1.1.1.1.1.1.1.1.1.1.1.1.1.1.1.1.1.1.1.1.1.1.1.1.1.1.;.j j.S b l $ ",
"$ & b b _ n 6 1.1.1.1.1.1.1.1.1.1.1.1.1.1.1.1.1.1.1.1.1.1.1.1.1.1.1.1.1.1.1.1.1.1.1.1.1.1.1.1.1.1.1.1.1.1.1.1.<.<.8 0.v._ _ a a ",
"a 2 v _ _ | i &.1.1.1.1.1.1.1.1.1.1.1.1.1.1.1.1.1.1.1.1.1.1.1.1.1.1.1.1.1.1.1.1.1.1.1.1.1.1.1.1.1.1.1.1.1.1.1.1...F B.m.m._ C ^ ",
"- n C  .g.g.S l 2.1.1.1.1.1.1.1.1.1.1.1.1.1.1.1.1.1.1.1.1.1.1.1.1.1.1.1.1.1.1.1.1.1.1.1.1.1.1.1.1.1.1.1.1.<.1.,.l p.U.T.Z.7.| n ",
", 2 P L g.k.t.f $.1.<.1.1.1.1.1.1.1.1.1.1.1.1.1.1.1.1.1.1.1.1.1.1.1.1.1.1.1.1.1.1.1.1.1.1.1.1.1.1.1.1.1.1.1.1.w Y D.E.R.s.f.C C ",
"2 - v S / h.f.A s >.1.1.1.1.1.1.1.1.1.1.1.1.1.1.1.1.1.1.1.1.1.1.1.1.1.1.1.1.1.1.1.1.1.1.1.1.1.1.1.1.1.1.1.1.;.f i.P.T.v.u._ b M ",
"- , = A C t.g.| p 7 <.1.1.1.1.1.1.1.1.1.1.1.1.1.1.1.1.1.1.1.1.1.1.1.1.1.1.1.1.1.1.1.1.1.1.1.1.1.1.1.1.1.1.<.6 U C.I.D. .u.z n b ",
"- - - 3 A A u.y.n > X.1.<.1.1.1.1.1.1.1.1.1.1.1.1.1.1.1.1.1.1.1.1.1.1.1.1.1.1.1.1.1.1.1.1.1.1.1.1.1.1.<.1.+.k  .S.H.q.t.C b c v ",
"% & - $ b c ^ 8.Q ; * <.1.1.1.1.1.1.1.1.1.1.1.1.1.1.1.1.1.1.1.1.1.1.1.1.1.1.1.1.1.1.1.1.1.1.1.1.1.1.1.1.<.x A f.C.g.^ _ 3 c a a "
};
